# xmcd
# 
# Track frame offsets:
#     150
#     16494
#     28946
#     46893
#     65191
#     83442
#     100663
#     124299
#     144723
#     167578
#     180595
#     199530
#     214301
# 
# Disc length: 3105
# 
# Revision: 1
# Processed by: cddbd v1.5.2PL0 Copyright (c) Steve Scherf et al.
# Submitted via: fre:ac v1.0.17
# 
DISCID=b50c1f0d
DTITLE=Ida Sand - Meet Me Around Midnight
DYEAR=2007
DGENRE=Jazz
TTITLE0=Mr Pianoman
TTITLE1=Bang Bang
TTITLE2=Brutal Truth
TTITLE3=Every Little Bit Hurts
TTITLE4=Here Comes The Rain Again
TTITLE5=One For My Baby
TTITLE6=Feeding Off The Love Of The Land
TTITLE7=Higher Ground
TTITLE8=At Last
TTITLE9=Baby Don't You Tear My Clothes
TTITLE10=Maybe You'll Be There
TTITLE11=Use Me
TTITLE12=Home
EXTD=
EXTT0=
EXTT1=
EXTT2=
EXTT3=
EXTT4=
EXTT5=
EXTT6=
EXTT7=
EXTT8=
EXTT9=
EXTT10=
EXTT11=
EXTT12=
PLAYORDER=
